<svg id="Layer_1" data-name="Layer 1" xmlns="http://www.w3.org/2000/svg" viewBox="0 0 762.03 259.92">
  <defs>
    <style>
      .cls-1 {
        fill: #49665e;
      }
    </style>
  </defs>
  <title>Royce_RGB_Primary_Forest_Green</title>
  <g>
    <path class="cls-1" d="M753.2,136.08c-9.69,5.88-6.14,36.58-41.88,36.26l-5.66-.4c-18.85-2.05-42-15.94-47.61-53.09-.4-2.67.83-5.3,3.43-6l72.78-20.64a24.37,24.37,0,0,0,13.56-37.12l-.13-.19C740.41,44.66,728.58,36,704.33,36c-43.79,0-69.28,38.77-69.28,76.83,0,29.14,13.35,53.53,33.42,65.55l6,3.09a59.41,59.41,0,0,0,26,5.77,65.08,65.08,0,0,0,8-.48l4.18-.64c20-3.71,35.07-16.3,43.66-29.75C767.56,141.88,759.79,132.08,753.2,136.08Zm-95.85-37c5.79-48,28.47-55,40.54-56.33,36.08-3.88,42.4,28.84,17.32,39.29L661.7,102.53A3.23,3.23,0,0,1,657.35,99.11Z"/>
    <path class="cls-1" d="M562.7,186.38c-43.07,0-64-41-64-69.39,0-44.86,37-81.14,82.58-81.14,22.62,0,40.21,9,40.21,20.47A10.5,10.5,0,0,1,611,67.1a20.12,20.12,0,0,1-11.18-3.41,39,39,0,0,1-4.59-3.51l-4.3-4c-5.78-5.47-11.88-11-21.93-11-24.77,0-46.32,29.44-46.32,63.92,0,35.89,21.55,62.19,50.62,62.45,35.74.32,32.19-30.38,41.87-36.26,6.6-4,14.37,5.8,3.19,20.24C608.15,171.57,588.67,186.38,562.7,186.38Z"/>
    <path class="cls-1" d="M331.53,204.83c-3.81-4.09-9.69-2-13.67,2.35-2.94,3.18-5.5,6.78-9.12,9.25a32.6,32.6,0,0,1-17.45,5.29c-12.6.36-25.09-2.69-36.73-7.32a258.23,258.23,0,0,1-32.9-16.13,132.16,132.16,0,0,1-17.59-12,295.51,295.51,0,0,1-28.14-26.68c-6.43-6.86-13.16-13.45-19.74-20.17-6.2-6.33-12.07-13.64-18.95-19.23a3.26,3.26,0,0,1,.93-5.58c24.82-9.32,40-29.69,40-53.64,0-34.93-28.43-61-91.82-61C75.21,0,67.92.09,61.66.27L43.18,1,19.4,2.31c-6.25.33-12,.61-16.23.72A3.25,3.25,0,0,0,0,6.29v0A3.26,3.26,0,0,0,3.26,9.58H7.55c19.87,0,25.68,6.19,25.68,27.42V181.22c0,23-7.19,28.44-27.4,28.44H3.26A3.25,3.25,0,0,0,0,212.91a3.18,3.18,0,0,0,1,2.3,3.18,3.18,0,0,0,2.3,1H93.7A3.26,3.26,0,0,0,97,212.91a3.26,3.26,0,0,0-3.26-3.25H89.08c-19.18,0-27.4-5.14-27.4-25.7V129.52a3.25,3.25,0,0,1,3.45-3.25l4.49.27,9.53.21,11.9-.21,10.31-.44a3.2,3.2,0,0,1,2,.56c8.19,5.6,19.87,15.36,34.41,29.9l22.62,22.61c51.58,52.63,106.15,56.21,133,53.26,15.59-1.71,30.11-11,33.93-13.66C329.72,217.07,336.52,210.19,331.53,204.83ZM82.92,120.32H72.42c-1.23,0-4.09-.14-6.55-.25a4.4,4.4,0,0,1-4.21-4.39V10.15a3.27,3.27,0,0,1,3-3.25c1.89-.16,3.65-.25,5.44-.3l8.7-.09c52.77,0,67.14,24.67,67.14,56.53C145.94,104.14,120.93,120.32,82.92,120.32Z"/>
    <path class="cls-1" d="M282.64,36.12c-37.34,0-77.56,26.58-77.56,76.13,0,42,34.11,74.31,78.64,74.31,42.72,0,76.11-32.66,76.11-75C359.83,68.8,326.44,36.12,282.64,36.12Zm5,141.83C256.79,178,232,143.47,232,100c0-30.88,21.9-55.29,45.59-55.29,30.16,0,55.29,34.8,55.29,75.74C332.9,156.38,308.83,178,287.65,178Z"/>
    <path class="cls-1" d="M423.75,194.81l7.44-10.93.08.15,5.74-9.49,3.61-6.35.12-.25.35-.64C461.73,129.87,486.71,72,486.71,72,493,56.5,501.05,47.05,513.4,44.29a4.13,4.13,0,0,0,3.22-4.12l0-1.13a3.48,3.48,0,0,0-3.48-3.48h-54.4A3.48,3.48,0,0,0,455.24,39v1.28A3.66,3.66,0,0,0,458.65,44c17.9,1.14,23.86,6.77,13.89,32L444.7,140.53a3.48,3.48,0,0,1-6.35.09L403.06,64.44c-3.63-7.62-4.51-12.52-2.36-15.59s5.84-5,13.69-5.1l1.93,0a4,4,0,0,0,4.06-4h0a4.18,4.18,0,0,0-4.18-4.18H349.93A3.48,3.48,0,0,0,346.45,39v.86a3.88,3.88,0,0,0,3.89,3.89h0c11.89.44,17.82,6.14,24.55,20.67l44,93.5c0,.09.08.18.11.27,2.93,7.8,5.45,20.42-2.26,31.32-5.29,7.07-32.34,45.7-66,45.51-8.38-.05-18.32,5.21-17,15,1.07,7.91,9.84,10.49,16.73,9.67C373.34,257.09,414.19,206.83,423.75,194.81Z"/>
  </g>
</svg>
